<?xml version="1.0" standalone="no"?>
<!DOCTYPE svg PUBLIC "-//W3C//DTD SVG 20010904//EN"
 "http://www.w3.org/TR/2001/REC-SVG-20010904/DTD/svg10.dtd">
<svg version="1.0" xmlns="http://www.w3.org/2000/svg"
 width="172.000000pt" height="300.000000pt" viewBox="0 0 172.000000 300.000000"
 preserveAspectRatio="xMidYMid meet">
<metadata>
Created by potrace 1.10, written by Peter Selinger 2001-2011
</metadata>
<g transform="translate(0.000000,300.000000) scale(0.100000,-0.100000)"
fill="#000000" stroke="none">
<path d="M803 2958 c-55 -60 -63 -78 -63 -148 0 -36 7 -92 14 -125 16 -67 69
-191 93 -217 15 -16 15 -20 0 -36 -45 -50 -77 -194 -61 -278 9 -47 75 -116
128 -134 66 -21 121 -6 177 50 l48 48 4 -92 c5 -102 16 -157 35 -164 19 -6 26
28 13 62 -19 48 -26 225 -11 272 l13 39 15 -50 c8 -27 18 -120 23 -205 9 -192
16 -233 40 -248 24 -15 24 -6 3 125 -8 55 -14 125 -12 157 l3 59 55 -47 c58
-50 81 -59 126 -54 24 2 30 8 32 33 5 41 -15 187 -38 276 -11 40 -18 74 -16
76 1 2 18 -8 36 -22 77 -57 193 -81 238 -49 19 13 22 24 22 82 0 37 -5 87 -11
112 -21 93 -131 163 -254 160 -82 -2 -80 -3 -59 21 16 18 19 36 18 108 -1 95
-15 135 -60 170 -36 28 -60 26 -136 -9 -72 -34 -95 -54 -131 -118 -24 -43 -37
-41 -37 6 0 41 -24 96 -57 133 -34 37 -38 39 -97 39 -57 0 -65 -3 -93 -32z
m155 -21 c25 -20 49 -82 67 -175 14 -75 21 -92 34 -90 9 2 17 15 19 33 2 16
23 59 46 95 39 59 49 68 111 94 73 32 83 30 118 -16 20 -27 34 -129 23 -171
-3 -14 -18 -39 -32 -56 -14 -17 -23 -35 -19 -41 3 -6 49 -10 105 -10 115 0
170 -19 211 -72 32 -42 51 -110 47 -168 l-3 -45 -43 -3 c-56 -4 -153 40 -215
97 -44 41 -77 53 -77 28 0 -7 4 -17 9 -22 23 -24 98 -385 85 -407 -8 -12 -56
11 -104 50 -64 53 -79 73 -80 109 0 17 -5 33 -12 35 -7 3 -13 41 -17 98 -5 78
-9 95 -23 98 -13 3 -18 -8 -24 -55 -8 -66 -52 -170 -95 -224 -32 -41 -83 -69
-124 -69 -39 0 -96 35 -124 76 -22 31 -23 42 -19 112 7 90 23 134 68 185 32
37 35 72 5 61 -11 -5 -25 14 -54 77 -44 96 -61 164 -61 250 0 56 3 62 40 103
38 41 43 44 83 39 23 -3 48 -10 55 -16z"/>
<path d="M1070 2561 c-16 -30 -12 -107 6 -125 28 -29 53 -37 73 -26 54 28 69
110 28 148 -31 29 -92 30 -107 3z m64 -31 c29 -11 35 -44 12 -75 -21 -29 -46
-3 -46 46 0 44 -1 43 34 29z"/>
<path d="M1376 1749 c-75 -20 -81 -23 -72 -37 3 -6 32 -4 74 5 59 12 73 12
103 -1 l34 -14 -30 -12 c-16 -6 -77 -25 -134 -41 -105 -29 -233 -40 -246 -20
-3 5 -20 8 -38 5 -17 -3 -45 -1 -62 4 l-30 9 32 16 c18 10 61 19 95 21 35 3
83 13 108 24 44 19 44 20 19 27 -17 4 -38 1 -59 -10 -19 -10 -36 -13 -43 -8
-7 5 -16 9 -22 8 -24 -4 -73 -18 -110 -32 -22 -9 -65 -21 -95 -27 -44 -10 -55
-16 -55 -31 0 -22 13 -23 78 -10 31 6 37 5 37 -10 0 -14 6 -16 29 -12 19 4 31
2 34 -6 3 -9 11 -9 37 0 29 11 35 10 45 -4 11 -15 17 -15 40 -5 16 7 31 9 34
4 15 -21 82 -7 326 69 168 53 177 57 172 72 -5 14 -66 17 -121 5 -26 -6 -42
-5 -46 2 -4 6 -16 12 -28 15 -12 2 -25 6 -30 8 -4 2 -38 -4 -76 -14z"/>
<path d="M455 1270 c-86 -16 -102 -16 -111 -4 -16 20 -41 17 -61 -6 -10 -11
-27 -20 -40 -20 -29 0 -55 -27 -51 -55 2 -17 -12 -38 -49 -75 -53 -53 -83
-103 -83 -139 0 -31 38 -27 82 9 l37 31 3 -53 c3 -45 6 -53 23 -53 16 0 21 8
23 35 6 82 27 112 27 41 1 -25 8 -48 20 -62 29 -31 94 -66 140 -75 22 -4 34
-9 27 -12 -18 -6 -47 -67 -62 -129 -13 -59 -25 -67 -105 -68 -38 0 -50 -4 -50
-15 0 -12 14 -15 68 -15 55 0 67 -3 67 -16 0 -20 -42 -114 -69 -153 -38 -56 5
-73 88 -36 71 33 81 29 81 -31 0 -72 18 -129 42 -129 20 0 22 8 9 42 -4 13
-11 49 -15 81 l-7 57 29 0 c17 0 63 12 104 26 40 14 91 29 113 33 54 8 56 30
7 89 -21 26 -42 52 -46 59 -8 15 62 82 87 83 10 0 17 8 17 20 0 32 -34 24 -85
-20 -25 -22 -48 -40 -51 -40 -3 0 -35 29 -72 65 -37 36 -77 68 -89 71 -12 3
-24 12 -27 19 -3 10 17 18 70 30 66 14 78 21 95 48 10 18 19 48 19 67 l0 35
20 -32 c22 -38 40 -42 47 -13 8 29 15 25 45 -25 28 -45 54 -58 64 -30 4 8 -1
26 -10 39 -13 21 -13 25 -1 30 8 3 15 10 15 15 0 13 -44 81 -70 106 -19 19
-19 22 -4 37 22 22 12 45 -31 65 l-35 17 21 19 c30 28 8 48 -50 47 -25 0 -62
2 -81 4 -19 3 -80 -4 -135 -14z m192 -43 c2 -3 0 -14 -6 -25 -13 -24 7 -54 58
-86 40 -26 109 -135 77 -123 -10 4 -29 7 -43 7 -22 0 -24 3 -19 26 9 34 -18
66 -48 58 -16 -4 -27 3 -45 26 -12 17 -20 37 -18 45 3 7 -3 22 -14 34 -14 15
-27 19 -49 14 -17 -3 -30 -2 -30 3 0 18 16 32 40 36 25 4 87 -6 97 -15z m-157
4 c0 -11 -69 -20 -76 -10 -4 7 15 12 64 18 6 0 12 -3 12 -8z m-135 -16 c25 -9
32 -14 19 -15 -34 0 -75 -39 -99 -95 -13 -28 -29 -56 -38 -63 -12 -10 -15 -5
-21 35 -7 51 1 68 54 121 36 37 33 36 85 17z m379 -67 c-9 -13 -21 -9 -53 18
-45 38 -38 48 13 17 25 -15 42 -31 40 -35z m-158 28 c10 -8 16 -17 12 -21 -7
-7 -48 16 -48 27 0 12 14 9 36 -6z m-25 -50 c54 -45 69 -75 69 -136 0 -30 -4
-61 -9 -68 -11 -17 -105 -42 -161 -42 -34 0 -60 8 -100 33 l-55 33 0 54 c0 72
29 147 58 154 12 2 54 3 93 3 62 -2 75 -6 105 -31z m-357 -59 c-6 -14 -84 -70
-90 -64 -9 9 68 86 81 81 7 -3 12 -11 9 -17z m374 -361 c35 -34 85 -88 111
-121 l48 -61 -86 -31 c-63 -23 -108 -33 -168 -36 -55 -2 -90 -9 -108 -21 -31
-21 -45 -14 -23 11 8 10 23 38 32 63 10 25 29 65 42 90 23 41 24 45 9 57 -16
11 -16 15 0 65 10 29 19 56 22 60 8 15 60 -18 121 -76z"/>
<path d="M356 1101 c-10 -16 5 -41 24 -41 25 0 35 18 20 35 -14 17 -36 20 -44
6z"/>
<path d="M470 1091 c0 -16 6 -21 26 -21 33 0 30 33 -4 38 -17 3 -22 -2 -22
-17z"/>
<path d="M527 1026 c-20 -30 -56 -38 -130 -27 -47 6 -60 5 -64 -6 -10 -25 10
-32 88 -34 90 -3 144 20 144 61 0 32 -19 36 -38 6z"/>
<path d="M580 405 c-11 -20 -11 -27 0 -40 7 -9 19 -14 27 -11 8 3 26 -16 48
-50 37 -58 59 -74 77 -56 11 11 -11 44 -78 118 -18 18 -34 41 -38 49 -8 22
-21 18 -36 -10z"/>
<path d="M1225 234 c-115 -24 -217 -42 -225 -41 -8 1 1 12 23 24 20 12 37 27
37 32 0 24 -25 20 -73 -12 -46 -30 -54 -32 -66 -19 -16 16 -111 11 -256 -13
-44 -8 -118 -17 -165 -20 -47 -3 -152 -15 -235 -26 -82 -10 -172 -20 -200 -21
-38 -2 -51 -7 -53 -21 -3 -15 6 -17 91 -17 92 0 95 -1 90 -21 -6 -21 -3 -21
66 -17 39 2 71 3 71 2 0 -1 -16 -11 -36 -23 -36 -21 -38 -41 -5 -41 23 0 55
46 47 67 -3 8 -20 20 -36 26 -17 6 -30 14 -30 18 0 9 53 19 97 19 30 0 33 -3
28 -20 -6 -18 -5 -19 22 -5 15 8 46 15 68 15 22 0 126 11 230 25 218 28 212
28 199 16 -23 -21 -143 -40 -398 -60 -98 -8 -111 -11 -135 -36 l-26 -26 25 5
c98 22 272 36 210 17 -14 -4 -69 -14 -123 -21 -84 -11 -96 -15 -85 -27 12 -11
29 -12 99 -3 46 6 147 15 224 20 162 10 296 30 427 64 147 38 172 52 147 82
-15 18 -16 18 61 33 36 7 76 18 90 24 25 12 34 38 15 43 -5 1 -104 -18 -220
-42z m-245 -80 c0 -16 34 -16 180 2 34 4 42 3 34 -6 -6 -6 -55 -15 -109 -21
-55 -5 -102 -13 -105 -19 -4 -6 -38 -13 -76 -16 l-69 -5 40 19 c22 10 49 29
59 41 22 25 46 28 46 5z"/>
</g>
</svg>
