<?xml version="1.0" standalone="no"?>
<!DOCTYPE svg PUBLIC "-//W3C//DTD SVG 20010904//EN"
 "http://www.w3.org/TR/2001/REC-SVG-20010904/DTD/svg10.dtd">
<svg version="1.0" xmlns="http://www.w3.org/2000/svg"
 width="558.000000pt" height="537.000000pt" viewBox="0 0 558.000000 537.000000"
 preserveAspectRatio="xMidYMid meet">
<metadata>
Created by potrace 1.10, written by Peter Selinger 2001-2011
</metadata>
<g transform="translate(0.000000,537.000000) scale(0.100000,-0.100000)"
fill="#000000" stroke="none">
<path d="M1210 5314 c-120 -23 -194 -46 -329 -103 -40 -17 -79 -31 -86 -31 -7
0 -18 -7 -25 -15 -7 -8 -20 -15 -30 -15 -10 0 -23 -7 -30 -15 -7 -8 -20 -15
-30 -15 -10 0 -23 -7 -30 -15 -7 -8 -20 -15 -30 -15 -10 0 -23 -7 -30 -15 -7
-8 -20 -15 -30 -15 -10 0 -23 -7 -30 -15 -7 -8 -19 -15 -27 -15 -8 0 -32 -13
-52 -29 -20 -15 -41 -30 -48 -32 -28 -9 -178 -157 -231 -228 -82 -110 -97
-137 -133 -236 -38 -103 -19 -410 28 -466 7 -8 13 -21 13 -28 0 -18 110 -158
167 -213 112 -108 192 -147 463 -224 83 -23 194 -44 299 -55 102 -10 106 -12
155 -53 44 -37 80 -58 171 -97 30 -14 125 -40 165 -46 19 -3 40 -9 45 -13 6
-4 48 -17 95 -29 103 -25 292 -39 421 -30 52 4 157 8 234 8 122 1 143 4 163
21 31 26 47 73 33 99 -6 11 -11 28 -11 39 0 10 -12 29 -26 43 -21 20 -39 25
-117 31 -101 7 -125 17 -229 91 -78 56 -108 90 -108 123 0 12 -4 26 -10 29
-20 12 -9 30 29 48 20 9 41 17 45 17 11 0 122 86 175 135 128 118 208 207 331
369 14 18 67 87 118 154 50 67 92 124 92 128 0 4 7 16 17 26 12 14 16 39 17
105 0 82 -2 92 -33 148 -68 123 -240 251 -486 361 -16 7 -42 16 -58 20 -15 3
-30 10 -33 15 -3 5 -18 9 -34 9 -16 0 -41 5 -57 11 -15 7 -98 20 -183 30 -196
23 -605 25 -720 3z m650 -175 c41 -6 102 -14 135 -18 70 -9 147 -28 192 -47
17 -8 35 -14 41 -14 9 0 97 -44 162 -83 73 -42 196 -141 219 -176 14 -22 24
-52 25 -77 1 -37 -9 -53 -104 -177 -58 -75 -114 -149 -125 -165 -43 -60 -175
-210 -232 -262 -128 -120 -198 -170 -236 -170 -25 0 -98 -36 -109 -54 -15 -22
-9 -85 10 -95 16 -9 16 -11 0 -39 -24 -40 -23 -106 2 -157 11 -23 50 -72 86
-109 36 -37 64 -69 62 -71 -6 -6 -294 23 -318 32 -14 6 -51 18 -83 27 -143 40
-175 49 -212 64 -59 24 -87 48 -116 100 -38 69 -91 89 -152 57 -23 -12 -42
-13 -100 -4 -159 23 -334 62 -392 88 -11 5 -40 16 -65 26 -25 9 -52 21 -60 26
-8 5 -24 13 -35 18 -42 18 -192 188 -224 254 -30 61 -31 68 -31 195 0 129 1
133 32 194 39 75 131 199 184 248 99 91 374 239 599 322 105 39 138 49 240 68
61 12 520 11 605 -1z"/>
<path d="M1781 5015 c-19 -9 -64 -15 -106 -15 -60 0 -83 -5 -131 -29 -33 -16
-86 -32 -119 -35 -71 -9 -123 -24 -149 -46 -25 -21 -148 -18 -182 5 -37 24
-161 16 -234 -15 -56 -24 -98 -28 -158 -15 -36 8 -72 -14 -147 -91 -24 -24
-57 -45 -82 -52 -45 -13 -83 -55 -83 -92 0 -52 57 -110 109 -110 23 0 76 27
103 53 10 9 33 17 52 17 35 0 81 17 131 50 17 11 39 24 50 30 11 5 27 14 35
19 73 43 141 51 193 24 23 -12 58 -17 127 -17 82 0 102 3 150 26 30 14 82 31
115 36 33 6 97 21 143 34 68 18 86 20 103 10 11 -7 39 -15 64 -19 55 -7 113
20 168 79 41 45 47 80 19 113 -46 55 -104 69 -171 40z"/>
<path d="M1825 4739 c-33 -11 -64 -24 -69 -29 -6 -6 -18 -10 -27 -10 -9 0 -22
-6 -28 -14 -6 -8 -40 -16 -79 -19 -38 -2 -88 -14 -117 -28 -27 -12 -77 -26
-110 -30 -64 -7 -128 -28 -147 -47 -7 -7 -19 -12 -27 -12 -8 0 -23 -8 -33 -17
-15 -13 -35 -17 -89 -15 -63 2 -74 -1 -105 -25 -26 -20 -38 -23 -46 -15 -24
24 -136 10 -233 -28 -11 -4 -42 -12 -70 -16 -41 -8 -52 -15 -68 -42 -24 -41
-17 -70 25 -111 36 -35 80 -41 126 -17 15 8 48 17 72 21 38 6 48 3 64 -14 24
-26 106 -30 126 -6 7 8 18 15 25 15 7 0 18 7 25 15 7 8 22 15 34 15 36 0 146
39 229 80 67 34 89 40 142 40 43 0 66 5 75 15 7 8 18 15 25 15 7 0 26 7 41 15
16 8 51 15 78 15 38 0 70 10 135 42 47 22 105 43 129 46 70 8 110 70 81 125
-32 59 -81 69 -184 36z"/>
<path d="M2019 4430 c-29 -32 -60 -62 -68 -66 -9 -4 -50 -8 -92 -9 -118 -4
-130 -7 -322 -89 -21 -9 -45 -16 -53 -16 -9 0 -28 -6 -42 -14 -15 -8 -34 -17
-42 -20 -8 -4 -28 -15 -45 -26 -16 -11 -40 -24 -52 -29 -11 -5 -24 -15 -28
-20 -9 -16 -42 -13 -70 5 -19 12 -43 15 -97 13 -64 -4 -79 -9 -123 -39 -105
-72 -162 -141 -151 -184 9 -38 55 -76 90 -76 25 0 46 13 97 60 74 69 96 73
146 30 22 -19 45 -30 64 -30 18 0 50 13 76 30 24 17 46 30 50 30 3 0 25 14 50
30 24 17 48 30 52 30 5 0 14 7 21 15 7 8 22 15 34 15 11 0 34 7 50 15 15 8 36
15 46 15 10 0 23 7 30 15 7 8 21 15 30 15 10 0 31 6 47 14 47 24 106 37 151
33 87 -8 181 19 227 67 51 52 115 140 115 159 0 11 -9 35 -21 53 -19 31 -25
34 -69 34 -47 0 -51 -2 -101 -60z"/>
<path d="M3935 4523 c-22 -2 -71 -11 -110 -19 -42 -10 -120 -16 -195 -16 -105
-1 -129 -4 -150 -19 -14 -11 -52 -24 -85 -30 -33 -6 -67 -17 -75 -24 -8 -7
-26 -16 -38 -20 -13 -4 -40 -24 -60 -44 -28 -28 -54 -41 -102 -54 -36 -10 -86
-24 -111 -32 -26 -8 -58 -15 -71 -15 -13 0 -33 -7 -44 -15 -10 -8 -30 -15 -44
-15 -44 -1 -90 -54 -90 -102 0 -14 13 -37 29 -52 25 -24 35 -27 85 -25 64 3
78 -6 65 -40 -9 -23 -13 -23 -70 -17 -73 7 -95 -3 -160 -71 -90 -94 -96 -118
-45 -169 38 -38 93 -47 116 -19 7 8 20 15 30 15 9 0 42 14 73 30 31 17 65 30
76 30 10 0 24 6 30 14 6 8 21 16 32 19 28 8 36 -19 15 -53 -9 -16 -16 -50 -16
-79 0 -34 -5 -54 -16 -63 -19 -15 -68 -63 -105 -104 -15 -16 -40 -39 -56 -51
-40 -30 -60 -91 -43 -133 16 -39 46 -60 85 -60 16 0 39 -7 49 -15 45 -34 97
-10 135 61 12 21 32 57 46 79 13 22 24 47 25 56 0 23 72 72 82 56 4 -6 8 -48
8 -92 0 -118 48 -254 121 -347 37 -45 155 -137 199 -154 8 -3 29 -11 45 -19
17 -7 54 -21 84 -31 36 -13 56 -26 62 -41 4 -12 17 -26 27 -32 22 -12 35 -48
20 -57 -5 -3 -13 -16 -18 -27 -6 -12 -26 -49 -45 -82 -19 -33 -40 -71 -46 -85
-6 -14 -28 -48 -50 -77 -21 -29 -39 -54 -39 -57 0 -3 -13 -24 -28 -48 -34 -53
-53 -101 -59 -151 -6 -47 -18 -52 -80 -37 -26 6 -71 15 -99 20 -28 4 -59 12
-70 18 -75 38 -151 72 -161 72 -44 0 -223 145 -223 182 0 9 -4 19 -9 22 -5 3
-12 21 -15 41 -11 54 -62 78 -132 59 -28 -7 -51 -85 -35 -120 6 -14 11 -32 11
-40 0 -9 16 -40 36 -70 59 -89 154 -175 234 -212 25 -11 85 -39 133 -61 49
-23 93 -41 100 -41 19 0 97 -32 97 -40 0 -4 -11 -15 -25 -24 -41 -27 -163 -17
-252 20 -17 8 -35 14 -39 14 -9 0 -73 32 -119 59 -16 10 -63 55 -104 102 -108
123 -153 169 -166 169 -7 0 -18 7 -25 15 -7 8 -28 15 -47 15 -44 0 -93 -46
-93 -86 0 -30 43 -94 63 -94 14 0 87 -73 87 -87 0 -5 26 -37 57 -72 84 -93
174 -148 348 -214 59 -23 198 -41 255 -33 63 8 65 -2 10 -96 -22 -39 -40 -74
-40 -79 0 -4 -7 -25 -16 -46 -40 -94 -47 -109 -55 -123 -5 -8 -12 -22 -15 -30
-17 -47 -41 -84 -60 -92 -50 -23 -59 -105 -16 -145 27 -25 28 -25 152 -19 129
6 338 19 495 31 103 8 94 8 119 6 16 -1 17 -4 8 -13 -7 -7 -12 -21 -13 -33 0
-11 -18 -51 -39 -90 -37 -67 -125 -242 -158 -315 -9 -19 -28 -51 -42 -70 -15
-19 -30 -42 -33 -50 -4 -8 -11 -22 -16 -30 -5 -8 -21 -40 -35 -70 -15 -30 -40
-77 -56 -105 -16 -27 -38 -67 -49 -87 -11 -21 -41 -66 -66 -100 -50 -68 -53
-82 -28 -118 27 -39 45 -49 86 -50 34 0 41 5 85 61 42 54 89 127 109 169 4 8
26 48 50 88 24 40 43 77 43 83 0 14 27 63 60 109 14 19 32 51 42 70 44 93 123
251 154 305 18 33 36 67 39 75 33 78 52 112 71 125 12 8 25 28 29 45 8 38 48
60 121 67 41 4 55 2 58 -8 20 -65 42 -111 60 -130 23 -26 32 -40 71 -114 34
-65 44 -82 78 -126 15 -20 27 -41 27 -47 0 -5 6 -15 14 -21 7 -6 16 -28 19
-49 4 -20 16 -68 27 -107 11 -38 25 -101 30 -138 5 -38 12 -72 15 -77 3 -4 10
-46 15 -92 36 -294 39 -306 78 -350 12 -14 31 -18 88 -18 l73 0 7 35 c4 24 0
47 -14 77 -11 24 -27 93 -36 153 -35 234 -47 311 -57 350 -6 22 -14 58 -18 80
-5 22 -13 53 -20 68 -6 16 -11 40 -11 53 0 31 -50 134 -90 184 -17 21 -30 42
-30 48 0 5 -7 15 -15 22 -8 7 -15 19 -15 26 0 8 -20 43 -45 80 -25 36 -45 69
-45 73 0 5 -7 14 -15 21 -8 7 -15 23 -15 36 0 25 8 28 80 37 19 3 62 10 95 15
33 6 108 14 166 17 78 5 115 12 137 25 l31 19 -1 108 c0 118 -28 245 -69 313
-5 8 -14 24 -19 35 -6 11 -19 34 -30 50 -11 17 -24 39 -30 50 -6 11 -19 34
-29 50 -11 17 -38 65 -60 107 -56 108 -63 118 -93 159 -16 20 -28 40 -28 44 0
6 -25 36 -178 215 -41 47 -112 122 -159 166 l-86 81 69 41 c116 67 231 178
342 327 63 85 76 107 115 198 18 40 34 48 43 20 30 -96 112 -159 174 -133 16
7 34 18 41 26 9 11 26 2 90 -47 46 -35 92 -62 112 -66 78 -12 133 97 72 145
-13 11 -40 33 -60 50 l-35 31 23 35 c12 20 32 39 44 42 37 10 85 72 77 97 -12
39 -51 91 -113 152 -77 75 -83 105 -14 71 25 -13 121 -57 183 -85 14 -6 44
-27 68 -46 54 -44 100 -47 149 -9 29 22 33 31 33 69 0 39 -4 48 -38 75 -40 32
-109 70 -127 70 -5 0 -37 13 -70 29 -33 16 -122 59 -197 96 -76 36 -140 70
-143 75 -4 6 -14 10 -24 10 -10 0 -28 11 -41 25 l-23 25 31 0 c21 0 43 10 63
28 29 26 31 32 25 66 -4 21 -18 48 -32 61 -13 12 -24 31 -24 43 0 24 -52 82
-74 82 -9 0 -42 13 -74 29 -99 50 -240 80 -407 88 -86 4 -94 3 -149 -26 -77
-41 -124 -41 -151 -2 -27 41 -41 44 -150 34z m485 -378 c0 -8 -4 -15 -9 -15
-13 0 -22 16 -14 24 11 11 23 6 23 -9z m-830 -55 c0 -5 -14 -17 -31 -26 -17
-9 -47 -31 -66 -50 -36 -36 -53 -43 -53 -21 0 14 66 77 80 77 4 0 10 7 14 15
6 16 56 21 56 5z m565 -36 c80 -26 117 -45 173 -92 55 -46 131 -153 132 -185
0 -10 7 -32 16 -49 13 -24 17 -62 17 -162 1 -136 -2 -145 -57 -243 -46 -82
-296 -332 -333 -333 -7 0 -28 -7 -46 -16 -34 -16 -34 -16 -66 15 -28 27 -39
31 -87 31 -30 0 -71 7 -91 15 -19 8 -44 15 -54 15 -17 0 -51 13 -129 48 -66
30 -160 108 -160 132 0 9 -5 21 -11 27 -29 29 -49 118 -49 215 0 103 2 111 61
203 14 22 29 47 32 55 4 8 16 29 27 45 11 17 25 39 31 50 10 19 141 125 154
125 3 0 21 11 38 24 31 23 81 45 177 79 59 21 163 21 225 1z m-79 -1451 c44
-43 104 -106 132 -140 47 -58 106 -125 143 -162 26 -27 139 -201 139 -215 0
-8 7 -19 15 -26 8 -7 15 -21 15 -31 0 -10 5 -21 11 -24 5 -4 15 -17 20 -28 5
-12 18 -35 29 -52 11 -16 24 -39 30 -50 6 -11 19 -33 30 -50 50 -78 83 -167
84 -225 l1 -45 -50 -2 c-93 -4 -438 -69 -581 -109 -28 -8 -65 -14 -82 -14 -17
0 -43 -5 -58 -10 -15 -6 -75 -15 -133 -20 -58 -6 -131 -12 -161 -15 -30 -3
-122 -10 -205 -15 -157 -9 -180 -5 -158 28 19 27 53 103 53 118 0 8 14 40 32
72 17 31 50 94 73 139 23 45 56 99 74 121 31 39 91 152 91 171 0 5 6 22 14 38
18 37 46 126 46 147 0 21 22 61 91 166 59 89 98 157 178 308 15 29 24 24 127
-75z"/>
<path d="M4098 3805 c-15 -9 -35 -29 -43 -45 -14 -28 -14 -33 4 -69 16 -30 28
-40 60 -49 49 -12 97 8 120 50 39 70 -66 155 -141 113z"/>
<path d="M3653 3768 c-29 -14 -47 -67 -34 -100 16 -41 68 -78 110 -78 79 0
114 108 53 163 -23 21 -100 30 -129 15z"/>
<path d="M4202 3410 c-23 -17 -42 -35 -42 -41 0 -5 -20 -19 -46 -30 -40 -18
-62 -20 -199 -17 l-154 3 -30 31 c-57 58 -131 47 -151 -23 -22 -74 31 -142
136 -177 43 -14 82 -16 220 -14 223 5 259 15 341 93 57 54 63 64 63 100 0 45
-4 52 -44 83 -37 29 -45 28 -94 -8z"/>
<path d="M2887 2999 c-46 -11 -104 -71 -113 -117 -6 -33 -48 -72 -78 -72 -21
0 -151 -62 -199 -94 -21 -14 -40 -26 -44 -26 -3 0 -22 -13 -43 -30 -21 -16
-41 -30 -45 -30 -18 0 -129 -97 -153 -133 -39 -61 -50 -80 -61 -102 -5 -11
-34 -49 -65 -85 -56 -66 -77 -100 -93 -155 l-8 -30 -100 -3 c-55 -2 -138 2
-185 8 -130 18 -244 29 -368 36 -186 11 -192 3 -192 -259 0 -178 1 -185 24
-220 24 -35 24 -40 25 -240 0 -190 2 -212 26 -304 15 -54 31 -146 35 -205 10
-129 27 -246 45 -313 7 -27 17 -75 20 -105 14 -106 40 -140 108 -140 57 0 72
27 71 126 -1 46 -9 105 -17 131 -20 62 -47 245 -47 319 0 56 -15 137 -46 250
-11 38 -14 122 -14 338 l0 287 -25 33 c-16 21 -25 46 -25 69 0 49 24 62 91 48
28 -6 76 -11 108 -11 33 0 96 -7 142 -16 91 -17 339 -15 434 4 28 5 79 11 115
13 l65 4 2 -132 c2 -204 19 -314 68 -453 31 -88 39 -147 44 -345 l6 -210 38
-73 37 -74 0 -148 c0 -185 4 -205 43 -225 36 -18 48 -19 82 -3 51 23 55 46 55
312 0 152 -4 254 -11 268 -5 13 -23 33 -40 43 l-29 20 0 138 c0 151 -21 269
-75 417 -31 85 -42 260 -31 525 3 84 -11 134 -41 146 -35 13 -91 11 -157 -6
-33 -9 -60 -14 -62 -12 -2 1 21 32 50 68 28 36 60 81 70 100 9 19 23 44 30 56
14 25 99 93 115 93 6 0 11 5 11 10 0 6 10 15 23 20 12 6 36 19 52 30 17 11 40
24 52 29 11 5 24 15 28 20 3 6 14 11 24 11 10 0 24 7 31 15 8 9 21 13 32 9 13
-4 26 1 39 15 11 12 30 21 43 21 13 0 29 7 36 15 7 8 19 15 28 15 8 0 24 8 34
17 18 16 21 16 49 -1 34 -20 56 -15 99 21 26 22 30 31 30 76 0 100 -40 178
-97 191 -16 4 -35 8 -43 10 -8 2 -32 0 -53 -5z"/>
</g>
</svg>
