<?xml version="1.0" standalone="no"?>
<!DOCTYPE svg PUBLIC "-//W3C//DTD SVG 20010904//EN"
 "http://www.w3.org/TR/2001/REC-SVG-20010904/DTD/svg10.dtd">
<svg version="1.0" xmlns="http://www.w3.org/2000/svg"
 width="1056.000000pt" height="1140.000000pt" viewBox="4.5 3.5 1056.000000 1140.000000"
 preserveAspectRatio="xMidYMid meet">
<metadata>
Created by potrace 1.10, written by Peter Selinger 2001-2011
</metadata>
<g transform="translate(0.000000,1140.000000) scale(0.100000,-0.100000)"
fill="#000000" stroke="none">
<path d="M7667 9807 c-18 -27 -9 -48 35 -85 15 -13 28 -30 28 -37 0 -7 7 -26
15 -41 30 -59 8 -225 -43 -329 -24 -47 -86 -110 -123 -124 -15 -5 -58 -13 -98
-17 -40 -4 -76 -13 -82 -20 -6 -8 -19 -14 -29 -14 -10 0 -45 -29 -78 -64 -48
-52 -64 -77 -81 -132 -27 -85 -27 -162 -1 -219 23 -50 90 -112 135 -123 16 -5
29 -12 28 -17 -1 -5 -30 -17 -65 -27 -35 -10 -76 -23 -93 -29 -16 -6 -43 -15
-60 -19 -86 -24 -218 -83 -278 -124 -21 -14 -40 -26 -44 -26 -15 0 -178 -137
-231 -195 -64 -70 -145 -185 -173 -245 -31 -65 -42 -135 -49 -320 -5 -102 -11
-200 -15 -218 -10 -43 12 -202 37 -272 11 -30 30 -69 44 -87 13 -17 24 -36 24
-41 0 -5 27 -38 60 -74 76 -83 161 -135 295 -178 47 -16 59 -18 318 -66 45 -8
142 -14 235 -14 86 0 163 -4 169 -8 10 -6 5 -21 -19 -58 -48 -73 -57 -87 -63
-104 -4 -8 -12 -28 -19 -45 -8 -16 -22 -56 -32 -87 l-18 -58 -858 0 -857 0
-43 22 c-24 12 -65 39 -91 60 -27 21 -59 38 -70 38 -12 1 -33 7 -47 15 -14 8
-38 14 -54 15 -16 0 -50 13 -75 29 -39 24 -66 31 -180 45 -74 9 -146 23 -160
30 -14 8 -44 22 -66 31 -65 29 -97 46 -142 76 l-41 27 -689 3 c-621 2 -692 1
-732 -14 -24 -10 -51 -17 -61 -17 -10 0 -23 -7 -30 -15 -7 -8 -19 -15 -27 -15
-8 0 -50 -27 -93 -60 -43 -33 -82 -60 -85 -60 -4 0 -24 -12 -44 -27 -46 -36
-70 -50 -101 -64 -14 -6 -39 -21 -57 -35 -17 -13 -38 -24 -46 -24 -8 0 -20 -7
-27 -15 -7 -8 -21 -15 -31 -15 -10 0 -20 -4 -23 -9 -5 -8 -68 -43 -141 -79
-16 -8 -44 -25 -62 -38 -17 -13 -36 -24 -42 -24 -6 0 -45 -24 -86 -52 -42 -29
-84 -57 -93 -63 -48 -28 -201 -166 -288 -261 -55 -59 -145 -156 -201 -215 -97
-102 -102 -110 -91 -134 8 -18 19 -25 38 -25 21 0 51 25 146 127 134 144 296
308 364 369 50 45 183 137 235 164 21 11 34 18 103 63 24 15 49 27 56 27 8 0
19 7 26 15 7 8 21 15 31 15 10 0 20 4 24 9 3 6 18 16 33 24 82 42 169 91 183
103 8 8 20 14 26 14 5 0 29 14 51 30 23 17 44 30 48 30 3 0 40 26 82 58 89 68
97 73 177 103 l60 22 670 -2 c517 -2 673 -6 685 -15 14 -11 170 -89 245 -121
33 -15 126 -31 220 -39 41 -4 78 -15 115 -35 30 -17 64 -31 74 -31 35 0 126
-35 126 -47 0 -10 -32 -13 -128 -13 -116 0 -131 -2 -147 -20 -16 -18 -17 -23
-5 -45 l13 -25 234 0 c158 0 241 -4 256 -12 12 -6 35 -15 52 -19 16 -4 44 -12
60 -17 17 -6 64 -18 105 -28 86 -20 129 -42 183 -93 46 -42 127 -156 161 -226
8 -16 29 -52 45 -80 17 -27 35 -59 41 -70 18 -33 34 -59 59 -93 53 -74 146
-263 156 -317 4 -22 12 -71 19 -110 11 -65 13 -70 38 -73 38 -4 61 33 53 85
-12 74 -27 138 -42 178 -19 50 -78 170 -103 210 -11 17 -24 39 -30 50 -11 23
-19 35 -77 123 -24 35 -43 69 -43 76 0 8 -7 19 -15 26 -8 7 -15 18 -15 24 0 7
-20 43 -45 80 -25 38 -45 72 -45 76 0 20 -136 151 -176 170 -26 13 -42 26 -37
31 5 5 297 8 669 7 l659 -3 -3 -45 c-1 -25 -9 -101 -17 -170 -24 -209 -46
-443 -45 -486 0 -23 -9 -62 -20 -87 -20 -44 -93 -119 -135 -138 -11 -5 -33
-18 -50 -28 -49 -32 -110 -61 -127 -61 -9 0 -21 -7 -28 -15 -7 -8 -20 -15 -30
-15 -10 0 -23 -7 -30 -15 -7 -8 -21 -15 -31 -15 -24 0 -127 -53 -207 -107 -35
-24 -66 -43 -69 -43 -3 0 -22 -13 -43 -30 -49 -39 -71 -38 -89 3 -8 17 -34 58
-58 89 -24 31 -43 61 -43 66 0 5 -13 22 -30 38 -16 16 -30 34 -30 39 0 6 -15
27 -33 47 -17 20 -63 74 -102 119 -38 45 -97 104 -130 132 -134 109 -335 330
-335 366 0 15 -129 142 -196 192 -110 82 -163 99 -184 60 -22 -41 -8 -268 35
-596 12 -89 15 -260 15 -877 l0 -767 23 -26 c22 -27 23 -27 46 -8 l23 19 -1
245 -2 246 27 18 c27 17 38 21 134 45 25 7 58 18 73 26 16 8 34 14 40 14 7 0
46 18 87 40 41 22 85 44 97 49 11 5 24 15 28 20 3 6 14 11 24 11 10 0 24 7 31
15 7 8 22 15 34 15 11 0 30 7 40 15 11 8 30 15 42 15 12 0 27 7 34 15 7 8 19
15 28 15 8 0 61 23 116 51 131 67 146 75 159 88 6 6 17 11 23 11 7 0 42 20 78
45 37 25 69 45 72 45 3 0 23 14 44 30 21 17 40 30 43 30 3 0 26 14 50 30 25
17 49 30 53 30 5 0 38 14 74 31 36 17 81 38 100 46 19 9 42 19 50 24 8 5 22
12 30 15 8 3 22 10 30 15 8 5 22 12 30 15 8 3 22 10 30 15 8 5 22 12 30 16 8
3 31 18 50 33 44 33 70 43 70 27 3 -92 -3 -780 -6 -802 -3 -16 -7 -110 -11
-207 l-6 -177 -56 -41 c-32 -22 -65 -54 -74 -69 -19 -32 -22 -76 -7 -86 12 -8
13 -39 1 -63 -40 -81 -71 -149 -71 -156 0 -11 -56 -121 -106 -211 -18 -33 -38
-69 -43 -81 -5 -12 -26 -48 -46 -80 -145 -231 -235 -343 -394 -494 -78 -74
-153 -154 -167 -178 -25 -42 -25 -44 -8 -63 25 -28 61 -24 78 9 13 25 68 80
198 197 99 89 299 349 368 480 6 11 24 43 40 70 29 48 189 368 215 430 21 50
43 109 50 130 3 11 14 31 24 45 l19 25 7 -30 c3 -17 12 -43 20 -60 17 -39 45
-130 45 -148 0 -8 7 -20 15 -27 8 -7 15 -20 15 -30 0 -10 7 -23 15 -30 8 -7
15 -18 15 -26 0 -25 136 -211 284 -389 19 -22 70 -84 115 -137 44 -54 89 -106
98 -116 22 -22 114 -139 128 -161 6 -9 21 -32 35 -51 42 -58 90 -151 90 -175
0 -7 7 -18 15 -25 8 -7 15 -20 15 -29 1 -26 36 -61 63 -61 40 0 48 36 20 89
-12 24 -23 52 -23 61 0 10 -7 23 -15 30 -8 7 -15 20 -15 30 0 10 -7 23 -15 30
-8 7 -15 19 -15 27 0 8 -13 32 -29 52 -15 20 -30 41 -32 48 -2 6 -16 26 -32
45 -15 18 -76 92 -135 163 -59 72 -117 141 -128 155 -148 174 -293 358 -307
390 -4 8 -16 29 -26 45 -49 76 -91 191 -91 247 0 23 -9 51 -24 73 -33 48 -43
111 -22 134 20 22 21 55 0 71 -13 11 -14 32 -10 124 2 61 9 379 15 706 5 327
15 638 22 690 6 52 15 142 19 200 11 135 39 370 46 381 3 5 9 30 14 57 17 98
76 226 137 297 24 27 43 57 43 67 0 24 38 48 76 48 17 0 37 7 44 15 7 8 22 15
34 15 11 0 30 7 40 15 11 8 30 15 42 15 12 0 27 7 34 15 7 8 21 15 31 15 10 0
21 5 24 11 4 5 17 15 28 20 12 5 36 18 52 29 17 11 39 24 50 30 31 15 55 31
117 78 31 23 61 42 66 42 5 0 22 13 38 30 16 16 35 30 42 30 24 0 198 184 233
245 151 264 189 521 118 800 -6 22 -14 58 -18 80 -4 22 -13 50 -19 62 -7 12
-12 30 -12 40 0 10 -7 31 -15 47 -8 15 -15 36 -15 46 0 10 -7 23 -15 30 -8 7
-15 22 -15 35 0 12 -13 41 -30 63 -16 23 -30 46 -30 51 0 18 -79 86 -114 99
-32 12 -40 12 -61 -2 -37 -25 -32 -52 15 -76 22 -11 52 -33 65 -49 29 -32 95
-159 95 -182 0 -8 7 -24 15 -35 8 -10 15 -29 15 -41 0 -12 6 -37 14 -55 13
-31 26 -77 56 -203 22 -92 24 -210 6 -298 -29 -141 -46 -191 -96 -297 -56
-115 -118 -193 -219 -269 -44 -33 -83 -61 -86 -61 -4 0 -33 -20 -65 -45 -32
-25 -62 -45 -65 -45 -4 0 -24 -12 -44 -27 -42 -32 -71 -51 -88 -58 -7 -3 -19
-7 -25 -10 -7 -3 -31 -16 -53 -30 -22 -13 -47 -24 -56 -25 -9 0 -22 -7 -29
-15 -7 -8 -22 -15 -34 -15 -12 0 -31 -7 -42 -15 -10 -8 -29 -15 -40 -15 -12 0
-38 -7 -57 -15 -51 -21 -438 -21 -517 0 -30 8 -73 15 -96 15 -22 0 -63 7 -90
15 -27 8 -59 15 -70 15 -12 0 -35 7 -50 15 -16 8 -36 15 -45 15 -8 0 -24 7
-35 15 -10 8 -25 15 -32 15 -35 1 -189 142 -213 195 -5 11 -13 27 -18 35 -36
64 -60 182 -53 270 1 14 6 115 11 225 10 214 22 275 67 346 36 59 115 159 159
203 66 67 208 170 269 197 12 5 28 13 36 18 35 22 152 71 169 71 11 0 22 4 26
9 3 5 20 12 38 16 17 4 55 13 82 20 210 57 500 87 819 86 136 -1 171 9 171 49
0 18 -9 29 -30 39 -25 12 -68 12 -295 2 -146 -7 -271 -15 -278 -17 -7 -2 -27
2 -45 10 -18 7 -76 16 -130 20 -111 8 -166 28 -215 79 -33 33 -34 37 -29 98 5
74 21 122 60 172 41 54 82 74 174 85 85 10 152 37 187 74 25 26 86 118 86 128
0 5 6 21 14 37 41 81 58 264 31 330 -8 19 -15 44 -15 54 0 24 -95 119 -119
119 -10 0 -26 -10 -34 -23z m-2105 -3962 c38 -38 68 -73 68 -78 0 -5 21 -36
47 -70 48 -63 126 -143 308 -317 117 -111 174 -173 200 -215 11 -16 27 -38 37
-48 18 -18 103 -140 125 -180 7 -12 26 -34 43 -48 l31 -26 -58 -29 c-32 -16
-76 -39 -98 -50 -94 -49 -171 -84 -184 -84 -8 0 -106 -45 -219 -101 -112 -55
-230 -108 -261 -116 -120 -32 -134 -35 -143 -21 -4 7 -8 217 -8 467 1 343 -3
483 -14 575 -47 376 -54 465 -39 479 8 9 83 -53 165 -138z"/>
<path d="M7853 8242 c-12 -4 -34 -18 -50 -32 -45 -41 -77 -60 -99 -60 -31 0
-54 -39 -41 -67 8 -18 18 -23 49 -23 41 0 74 16 123 61 17 15 41 30 55 34 41
12 70 34 70 55 0 34 -50 48 -107 32z"/>
<path d="M6920 8091 c-14 -27 -13 -37 6 -55 12 -13 41 -16 150 -16 121 0 136
2 154 20 26 26 25 34 -5 54 -19 13 -52 16 -159 16 -124 0 -136 -2 -146 -19z"/>
<path d="M7770 7559 c-19 -10 -55 -36 -80 -58 -25 -23 -50 -41 -56 -41 -6 0
-17 -7 -24 -15 -10 -13 -52 -15 -256 -15 -237 0 -243 -1 -258 -21 -13 -19 -13
-24 1 -45 l15 -24 240 0 239 0 61 30 c34 17 78 46 99 65 21 19 52 41 68 50 21
10 31 23 31 38 0 48 -32 62 -80 36z"/>
<path d="M3600 6380 c-21 -11 -47 -16 -65 -13 -39 6 -99 -34 -153 -104 -23
-28 -50 -57 -60 -65 -11 -7 -58 -49 -106 -93 -48 -44 -104 -90 -123 -102 -19
-11 -52 -38 -73 -58 -39 -38 -48 -44 -135 -89 -117 -61 -192 -122 -232 -191
-14 -22 -18 -32 -40 -90 -8 -22 -19 -47 -24 -55 -5 -8 -12 -22 -15 -30 -31
-84 -130 -243 -206 -331 -70 -81 -82 -111 -49 -129 39 -20 81 13 173 135 24
33 48 67 51 75 4 8 16 29 26 45 29 45 121 233 121 247 0 7 7 22 15 32 8 11 15
27 15 36 0 34 127 139 217 179 11 5 24 15 28 20 3 6 14 11 24 11 10 0 31 13
47 30 16 16 34 30 39 30 6 0 56 39 111 88 54 48 115 101 134 117 47 41 119
113 152 152 31 37 94 55 109 32 5 -8 9 -528 9 -1184 0 -1102 1 -1171 17 -1183
10 -7 24 -11 33 -10 40 8 40 4 40 1263 0 666 -4 1215 -8 1220 -22 30 -37 33
-72 15z"/>
<path d="M4429 5655 c-3 -2 -41 -5 -85 -6 -43 -1 -91 -8 -106 -16 -45 -22 -62
-71 -34 -102 32 -37 45 -123 47 -321 l3 -195 -34 -69 c-38 -75 -146 -193 -217
-236 -63 -38 -83 -75 -83 -149 0 -80 22 -124 97 -188 100 -86 125 -93 344 -93
185 0 334 17 366 42 7 6 47 14 90 18 155 16 241 72 286 188 42 106 -1 212 -93
235 -173 43 -205 63 -229 139 -7 24 -16 111 -20 195 -4 99 -11 157 -19 165 -6
6 -12 21 -12 33 -1 11 -21 40 -45 65 -25 25 -45 51 -45 59 0 8 14 30 31 47 25
26 31 40 31 75 -1 50 -25 78 -90 103 -39 15 -172 23 -183 11z m162 -105 l24
-20 -25 -20 c-41 -34 -70 -41 -144 -35 -75 7 -129 34 -124 64 3 17 59 26 184
29 49 2 67 -2 85 -18z m-19 -203 c21 -17 38 -32 38 -34 0 -2 -21 -13 -47 -26
-38 -18 -48 -27 -48 -47 0 -31 40 -54 67 -39 11 6 33 9 51 7 28 -3 32 -7 32
-33 0 -27 -4 -30 -34 -33 -39 -4 -81 -28 -81 -47 0 -21 29 -39 73 -44 33 -5
42 -10 42 -26 0 -16 -8 -21 -37 -23 -47 -4 -75 -40 -56 -73 11 -17 20 -20 55
-16 44 5 73 -13 73 -45 0 -24 78 -127 108 -142 15 -8 53 -19 85 -25 98 -18
137 -46 137 -101 0 -87 -98 -160 -230 -173 -36 -4 -94 -16 -130 -28 -56 -19
-94 -22 -278 -26 l-213 -5 -41 27 c-22 15 -60 45 -84 67 -41 38 -44 44 -44 92
l1 51 85 63 c91 68 179 169 209 242 4 8 14 33 23 55 14 33 17 70 14 233 l-3
194 97 -7 c89 -6 101 -10 136 -38z"/>
</g>
</svg>
