<?xml version="1.0" standalone="no"?>
<!DOCTYPE svg PUBLIC "-//W3C//DTD SVG 20010904//EN"
 "http://www.w3.org/TR/2001/REC-SVG-20010904/DTD/svg10.dtd">
<svg version="1.0" xmlns="http://www.w3.org/2000/svg"
 width="528.000000pt" height="900.000000pt" viewBox="0 0 528.000000 900.000000"
 preserveAspectRatio="xMidYMid meet">
<metadata>
Created by potrace 1.10, written by Peter Selinger 2001-2011
</metadata>
<g transform="translate(0.000000,900.000000) scale(0.100000,-0.100000)"
fill="#000000" stroke="none">
<path d="M3630 8934 c-75 -17 -123 -22 -166 -19 -52 4 -66 2 -95 -18 -32 -21
-86 -39 -224 -73 -192 -48 -305 -96 -305 -129 0 -8 -21 -33 -46 -57 -86 -80
-156 -157 -188 -205 -62 -97 -54 -82 -95 -176 -17 -40 -28 -52 -61 -64 -35
-14 -45 -26 -89 -112 -82 -161 -160 -356 -189 -476 -46 -186 -53 -248 -50
-425 l3 -172 28 -24 c36 -31 68 -30 105 1 17 14 37 25 46 25 9 0 32 9 52 19
27 15 48 18 88 14 49 -5 54 -3 74 22 20 25 22 40 22 145 0 98 4 128 22 176 20
52 23 55 29 34 4 -14 7 -44 8 -66 1 -23 10 -70 21 -105 22 -72 133 -296 182
-367 108 -158 251 -249 463 -294 28 -6 56 -15 63 -20 16 -13 15 -66 -2 -153
-17 -90 -51 -165 -124 -273 -32 -48 -68 -110 -81 -137 -116 -249 -159 -325
-181 -325 -3 0 -21 32 -40 71 -29 61 -54 92 -163 198 -71 69 -154 158 -185
196 -54 67 -223 242 -270 277 -12 10 -46 31 -75 47 -195 110 -387 127 -387 35
0 -36 -19 -39 -64 -7 -22 15 -68 37 -101 47 -33 10 -80 24 -105 32 -25 7 -85
16 -135 19 -54 3 -111 13 -143 25 -49 19 -123 34 -232 47 -103 12 -173 -56
-184 -179 -4 -40 -25 -136 -47 -213 -73 -253 -105 -401 -150 -695 -11 -74 -24
-153 -29 -175 -63 -304 -72 -343 -126 -530 -59 -209 -64 -230 -64 -330 0 -80
-5 -114 -25 -170 -42 -116 -56 -193 -65 -340 -8 -136 -16 -184 -45 -290 -27
-95 -44 -201 -49 -300 -5 -92 -15 -144 -60 -295 -42 -140 -56 -268 -56 -504 0
-169 -4 -243 -14 -280 -8 -28 -22 -76 -30 -106 -9 -30 -22 -134 -31 -230 -8
-96 -23 -208 -31 -249 -15 -64 -16 -121 -10 -435 4 -199 11 -561 14 -806 7
-445 7 -445 30 -478 48 -66 -19 -62 1063 -60 l982 3 21 28 21 28 -20 37 c-20
37 -21 37 -95 42 -87 6 -88 8 -115 130 -14 66 -16 142 -12 590 2 338 8 544 16
600 7 47 19 128 26 180 44 298 89 927 101 1425 3 121 9 716 13 1323 6 912 5
1117 -6 1185 -8 45 -18 129 -23 187 -23 249 -24 255 -52 289 -15 17 -30 48
-34 67 -8 43 4 237 17 271 8 23 10 23 38 8 17 -8 34 -15 40 -15 5 0 38 -17 73
-37 75 -44 165 -128 300 -280 54 -62 144 -156 199 -210 116 -112 159 -172 159
-221 0 -39 14 -71 43 -93 l20 -17 -26 -63 c-21 -54 -52 -166 -96 -349 -5 -19
-34 -85 -65 -147 -115 -225 -91 -273 168 -339 118 -30 160 -42 201 -59 17 -7
44 -17 60 -23 270 -89 287 -96 268 -110 -12 -9 -32 -11 -59 -7 -102 15 -216
-92 -243 -228 -20 -100 -48 -193 -72 -239 -16 -32 -47 -132 -54 -173 -3 -22
-10 -97 -15 -167 -8 -118 -11 -134 -46 -205 -37 -77 -91 -244 -119 -373 -18
-79 -20 -292 -3 -323 26 -49 70 -60 109 -28 23 18 24 27 30 173 4 115 11 168
26 213 11 33 28 89 38 125 9 36 32 97 51 135 52 108 55 120 65 270 10 157 24
220 73 338 18 45 41 118 51 162 34 156 70 190 185 176 139 -18 227 -91 341
-284 40 -67 116 -187 169 -267 170 -254 194 -293 278 -459 65 -128 68 -134 96
-164 31 -34 77 -36 106 -5 25 27 26 63 1 108 -10 19 -33 62 -51 95 -17 33 -55
103 -82 155 -28 52 -115 192 -193 310 -79 118 -173 266 -210 329 -43 72 -93
140 -136 185 -38 39 -64 72 -59 74 6 2 49 -6 97 -17 195 -45 299 -61 408 -61
94 0 117 4 160 24 63 29 101 73 110 127 14 85 -15 265 -66 400 -11 30 -27 74
-36 99 -8 25 -30 81 -48 125 -50 123 -52 139 -17 164 17 12 35 21 40 21 32 0
234 155 367 281 83 78 175 164 207 191 31 27 59 60 62 73 14 54 -36 104 -90
91 -12 -3 -86 -66 -163 -138 -249 -233 -334 -301 -453 -363 -42 -22 -62 -13
-72 33 -7 25 -52 177 -80 267 -30 93 -48 157 -76 265 -50 192 -61 233 -75 280
-41 139 -56 201 -53 212 3 9 74 12 279 13 264 0 276 1 324 23 76 35 132 95
176 190 22 45 39 92 39 105 0 12 10 38 22 57 l22 35 8 -75 c26 -237 49 -294
117 -288 33 3 37 0 66 -52 28 -51 34 -55 71 -58 74 -5 100 56 119 278 9 115
23 159 56 176 35 17 44 59 35 153 l-7 67 41 27 c23 15 46 27 51 27 5 0 9 50 9
110 0 80 -3 109 -12 108 -7 -2 -15 14 -19 37 -4 22 -13 69 -19 105 -7 36 -14
118 -17 183 -6 109 -8 122 -34 160 -16 23 -29 52 -29 65 0 13 -7 53 -15 90 -9
37 -22 99 -31 137 -31 144 -71 272 -100 317 -32 50 -31 56 14 63 58 10 90 25
107 51 19 30 19 49 -1 79 -21 32 -70 45 -177 45 l-87 0 -22 48 c-70 155 -94
198 -121 212 -25 14 -30 13 -59 -3 -18 -10 -71 -23 -118 -29 -82 -9 -88 -9
-145 17 -69 31 -150 42 -193 27 -23 -8 -38 -6 -72 9 -37 17 -65 19 -219 18
-146 -1 -194 -6 -281 -25z m79 -585 c14 -6 44 -14 66 -18 22 -5 112 -27 200
-50 122 -32 181 -42 253 -44 89 -2 94 -1 112 23 11 14 20 32 20 41 0 8 5 20
12 27 17 17 48 -4 48 -32 0 -30 41 -180 74 -271 14 -38 25 -85 26 -103 0 -18
7 -65 15 -105 8 -40 20 -94 25 -120 6 -27 10 -180 10 -340 0 -398 -20 -544
-90 -661 -56 -95 -72 -101 -280 -101 -96 0 -227 1 -290 3 -63 2 -145 0 -181
-3 -58 -6 -80 -2 -165 25 -55 17 -110 37 -124 45 -89 48 -141 69 -215 91 -159
46 -237 107 -324 253 -61 104 -87 156 -122 244 -30 76 -33 91 -33 202 0 95 3
127 17 153 10 17 22 32 27 32 15 0 77 111 100 180 12 35 26 72 30 81 19 34 87
110 233 257 154 155 201 189 282 203 51 10 239 1 274 -12z m-117 -1845 c25 -7
55 -17 65 -23 18 -9 49 -98 97 -281 10 -36 24 -87 32 -115 8 -27 33 -117 55
-200 48 -180 53 -197 129 -445 18 -58 35 -132 37 -165 3 -41 11 -67 24 -81 17
-19 46 -83 68 -154 11 -35 89 -238 107 -278 8 -18 14 -41 14 -51 0 -10 6 -34
14 -52 7 -19 17 -69 21 -111 6 -69 5 -78 -14 -97 -18 -18 -33 -21 -112 -21
-109 0 -359 48 -522 100 -34 11 -87 27 -117 37 -84 25 -407 136 -445 152 -11
5 -47 16 -80 24 -179 47 -197 53 -207 70 -6 11 -6 23 0 30 18 23 74 131 88
171 20 55 39 121 69 246 14 58 31 119 37 135 13 34 83 145 139 220 33 45 69
114 154 300 15 33 49 93 76 132 95 142 139 246 159 378 14 88 25 110 49 99 9
-4 37 -13 63 -20z m-2482 -1 c25 -3 84 -18 131 -34 64 -21 105 -29 159 -29 40
0 96 -7 124 -15 28 -8 63 -17 77 -19 15 -3 49 -21 77 -40 27 -19 65 -39 83
-44 l34 -8 7 -120 c3 -65 10 -136 16 -156 5 -20 7 -39 4 -42 -12 -13 -22 -4
-40 37 -19 44 -20 44 -83 51 -35 3 -75 9 -89 12 -23 5 -28 0 -50 -46 -13 -29
-37 -63 -53 -76 -41 -34 -77 -90 -77 -119 0 -33 47 -68 83 -62 38 5 81 -44 72
-82 -10 -41 -20 -45 -71 -27 -65 22 -105 21 -111 -3 -3 -11 -13 -21 -24 -24
-24 -6 -43 -49 -35 -80 5 -20 13 -25 52 -30 52 -5 74 -21 57 -38 -8 -8 -16 -7
-30 2 -27 16 -70 1 -90 -32 -15 -24 -14 -29 3 -65 23 -47 66 -71 103 -57 24 8
26 13 25 65 -1 54 0 57 24 60 20 2 28 11 35 38 8 30 10 32 19 16 6 -11 8 -41
4 -73 -4 -38 -2 -62 9 -83 8 -16 15 -48 15 -72 0 -51 12 -73 34 -65 11 5 15
19 13 56 -1 27 2 53 6 58 12 12 47 -35 47 -63 0 -27 25 -43 42 -26 9 9 9 24 0
59 -9 39 -8 52 4 70 18 29 18 67 -2 104 -8 17 -16 49 -17 72 -2 39 0 42 26 45
57 7 43 52 -16 52 -36 0 -71 53 -55 83 5 11 18 22 29 24 10 3 28 21 40 39 11
19 24 34 29 34 15 0 27 -25 33 -68 6 -52 12 -60 35 -46 11 7 20 32 25 70 5 32
11 70 14 84 l6 25 9 -30 c5 -16 13 -79 18 -140 5 -60 15 -143 22 -183 12 -61
13 -249 7 -1150 -8 -1158 -13 -1432 -29 -1746 -18 -351 -46 -719 -60 -795 -6
-30 -10 -75 -10 -99 0 -24 -6 -83 -14 -131 -37 -222 -41 -293 -41 -821 0 -418
3 -537 14 -586 24 -104 109 -94 -782 -94 -596 0 -786 3 -795 12 -9 9 -12 115
-12 413 0 220 -5 454 -10 520 -11 134 -14 593 -4 619 7 19 50 21 133 6 31 -5
94 -16 141 -25 134 -24 158 -21 202 22 21 20 38 44 38 53 0 18 -76 60 -110 60
-14 0 -59 6 -100 14 -41 7 -114 19 -162 26 -48 7 -92 17 -99 21 -22 13 5 282
41 414 29 108 30 115 30 345 0 262 8 325 67 516 l35 112 81 16 c94 18 534 32
927 30 247 -2 292 -7 388 -45 28 -12 36 -11 59 3 15 9 31 28 36 42 21 62 -47
113 -178 137 -111 19 -657 17 -1182 -6 l-113 -5 0 46 c0 43 16 132 42 229 28
107 40 182 48 310 8 133 15 170 66 330 9 28 20 109 24 180 4 72 14 150 23 175
l14 45 69 0 c38 0 125 -13 193 -28 68 -15 137 -27 154 -27 32 0 124 -15 342
-57 148 -28 389 -47 416 -33 9 5 21 23 27 39 8 23 6 35 -8 59 -27 45 -49 52
-150 52 -59 0 -141 10 -238 29 -81 16 -199 36 -262 45 -167 24 -298 47 -354
62 -27 8 -64 14 -82 14 -50 0 -60 20 -41 88 20 71 41 162 62 272 9 47 21 103
26 125 11 49 35 194 49 295 5 41 14 95 19 120 30 145 45 210 56 250 7 25 15
56 18 70 3 14 18 68 35 122 17 53 35 131 41 173 13 91 17 99 45 90 11 -3 41
-9 66 -12z m588 -567 c3 -16 0 -18 -24 -12 -35 9 -38 12 -29 26 11 17 49 7 53
-14z m-68 -56 c0 -5 -11 -10 -25 -10 -14 0 -25 5 -25 10 0 6 11 10 25 10 14 0
25 -4 25 -10z m48 -22 c-3 -7 -11 -13 -18 -13 -7 0 -15 6 -17 13 -3 7 4 12 17
12 13 0 20 -5 18 -12z m-189 -224 c38 -20 51 -32 50 -48 0 -21 -1 -21 -11 1
-8 17 -17 21 -34 17 -17 -4 -26 -1 -30 10 -3 9 -17 16 -30 16 -15 0 -24 6 -24
15 0 22 21 19 79 -11z m160 -97 c11 -35 21 -71 21 -80 0 -20 -40 -23 -58 -5
-13 13 -17 130 -5 141 14 15 21 5 42 -56z m-231 -104 c2 -8 -5 -13 -17 -13
-12 0 -21 6 -21 16 0 18 31 15 38 -3z"/>
<path d="M3352 7940 c-29 -12 -45 -55 -37 -98 8 -41 64 -98 105 -107 33 -7 75
17 84 49 7 28 -12 107 -32 134 -20 26 -83 38 -120 22z"/>
<path d="M3985 7868 c-48 -26 -65 -51 -65 -93 0 -81 69 -100 150 -41 35 25 46
40 48 65 6 64 -70 104 -133 69z"/>
<path d="M3076 7349 c-31 -25 -36 -77 -8 -102 37 -34 154 -93 252 -128 103
-37 375 -60 452 -39 46 13 213 122 221 145 14 34 7 64 -19 84 -40 32 -65 26
-161 -35 l-88 -56 -126 6 c-104 4 -141 10 -218 36 -51 17 -107 40 -124 50
-111 67 -138 73 -181 39z"/>
<path d="M953 5684 c-33 -34 -38 -44 -39 -87 0 -40 -5 -53 -25 -68 l-24 -19
28 -25 c30 -27 33 -45 14 -83 -8 -15 -21 -42 -30 -61 -13 -25 -15 -37 -6 -47
13 -16 49 -1 49 21 0 13 38 41 44 33 2 -2 8 -16 13 -33 6 -19 17 -31 31 -33
32 -5 29 19 -14 141 -18 48 -19 43 16 56 33 11 37 26 15 58 -13 18 -13 22 0
33 9 8 15 30 15 59 0 37 -5 52 -24 70 l-25 23 -38 -38z"/>
<path d="M1105 5644 c-26 -28 -32 -58 -15 -69 13 -8 13 -41 -2 -64 -9 -14 -8
-23 5 -42 23 -32 21 -52 -8 -87 -15 -18 -23 -37 -19 -46 7 -18 30 -21 39 -6
10 15 52 12 59 -5 8 -21 36 -7 36 19 0 11 -7 34 -15 50 -20 38 -19 53 5 59 26
7 25 32 -2 51 l-22 16 27 28 c34 35 34 52 1 91 -32 38 -57 39 -89 5z"/>
<path d="M938 4526 c-49 -30 -89 -65 -120 -108 -16 -20 -36 -39 -46 -42 -42
-14 -142 -271 -120 -310 8 -14 47 -16 346 -15 185 1 345 5 355 11 21 11 23 57
2 84 -11 15 -14 54 -15 180 l0 162 -29 31 -29 31 -155 -2 c-138 -1 -159 -4
-189 -22z m328 -40 c17 -13 19 -26 16 -161 -3 -123 -1 -150 13 -171 33 -51 29
-52 -285 -53 -333 -1 -316 -6 -284 88 24 73 51 119 74 126 10 3 30 25 43 48
28 46 54 73 107 108 32 22 48 24 166 26 100 2 135 -1 150 -11z"/>
<path d="M1497 4430 c-19 -16 -40 -30 -45 -30 -6 0 -27 -14 -47 -31 -34 -30
-35 -33 -35 -105 0 -71 1 -74 34 -99 26 -20 40 -24 62 -19 20 5 30 2 40 -10
23 -32 6 -48 -41 -40 -58 8 -66 -9 -23 -49 24 -22 40 -50 52 -89 20 -70 20
-77 -4 -108 -11 -14 -20 -35 -20 -47 0 -36 35 -29 59 12 24 41 39 44 70 11 13
-14 29 -22 37 -19 18 7 18 37 -1 53 -19 16 -19 44 1 60 11 10 14 23 9 49 -5
32 -1 42 31 79 44 52 37 71 -20 52 -54 -17 -77 8 -38 43 25 23 49 21 57 -3 5
-16 12 -19 33 -14 35 8 72 31 79 50 7 19 -23 125 -49 176 -11 21 -39 54 -63
73 -36 30 -50 35 -93 35 -43 0 -57 -5 -85 -30z m140 -184 c-4 -9 -17 -16 -31
-16 l-24 0 21 24 c23 26 45 20 34 -8z"/>
<path d="M1000 3997 c-14 -8 -44 -24 -68 -37 -51 -27 -72 -57 -46 -67 10 -3
30 1 46 10 57 33 64 26 71 -65 14 -172 9 -187 -47 -167 -44 16 -63 4 -42 -27
25 -35 85 -46 179 -34 45 7 84 14 87 16 2 3 -1 13 -7 22 -7 12 -24 17 -59 17
l-49 0 -8 100 c-4 55 -5 123 -2 151 4 40 1 57 -13 73 -15 19 -20 20 -42 8z"/>
<path d="M1370 3100 c0 -6 -8 -13 -17 -17 -10 -3 -30 -17 -45 -31 -14 -13 -41
-27 -59 -31 -25 -5 -37 -16 -54 -48 -11 -23 -29 -51 -40 -63 -25 -27 -46 -136
-34 -169 8 -21 14 -23 49 -18 35 4 40 3 40 -15 0 -11 8 -33 17 -48 14 -24 14
-31 4 -44 -19 -22 -31 -20 -71 14 -19 17 -40 30 -47 30 -40 0 -14 -59 38 -86
33 -17 34 -20 11 -107 -14 -54 -6 -74 37 -88 70 -23 72 -34 20 -120 -30 -47
-36 -74 -20 -83 21 -13 42 10 82 90 23 46 47 84 53 84 17 0 106 -109 123 -151
14 -37 36 -54 54 -43 5 3 9 11 9 17 0 18 -34 82 -65 123 -30 39 -27 64 8 64
46 0 58 36 35 114 -6 22 -17 48 -23 56 -38 47 -38 58 0 110 36 49 60 61 81 40
29 -29 47 53 47 214 1 90 -2 111 -16 121 -10 7 -15 23 -14 41 l2 29 -58 -3
c-41 -2 -66 2 -82 12 -27 18 -65 21 -65 6z m89 -174 c8 -10 6 -19 -9 -39 -11
-14 -20 -36 -20 -49 0 -14 -14 -38 -35 -58 -31 -30 -38 -33 -55 -22 -12 7 -31
10 -47 6 -26 -7 -26 -7 -19 37 8 52 48 116 79 129 34 13 93 12 106 -4z m21
-183 c0 -16 -67 -103 -83 -109 -20 -6 -47 11 -47 31 0 7 18 25 40 40 22 15 40
32 40 36 0 5 11 9 25 9 14 0 25 -3 25 -7z m-135 -158 c14 -13 25 -28 25 -33 0
-5 11 -14 25 -20 13 -6 34 -30 46 -53 21 -41 21 -43 3 -56 -15 -11 -41 -12
-114 -7 -52 4 -98 9 -102 11 -33 19 37 183 78 183 8 0 26 -11 39 -25z"/>
<path d="M1370 2885 c-7 -8 -23 -15 -36 -15 -28 0 -34 -34 -9 -44 26 -10 86
25 83 48 -4 25 -22 31 -38 11z"/>
<path d="M512 2570 c-12 -5 -27 -21 -33 -34 -10 -21 -9 -30 6 -53 10 -15 24
-32 32 -36 16 -10 17 -38 1 -72 -9 -21 -9 -31 0 -46 7 -10 12 -41 12 -68 0
-27 9 -69 20 -95 18 -39 25 -46 50 -46 16 0 32 -4 35 -10 3 -5 15 -10 26 -10
42 0 16 125 -36 178 -32 32 -31 38 6 46 40 8 36 39 -6 46 -39 7 -44 35 -11 61
32 25 33 59 5 85 -12 10 -25 29 -30 42 -9 24 -36 28 -77 12z"/>
<path d="M755 1785 c-31 -30 -33 -77 -5 -105 19 -19 33 -20 493 -20 259 0 482
3 494 6 26 7 47 55 39 89 -14 54 -24 55 -531 55 l-466 0 -24 -25z"/>
<path d="M800 1406 c-13 -36 -29 -40 -56 -15 -42 39 -48 18 -51 -175 l-3 -174
30 -22 c22 -16 30 -29 30 -51 0 -17 7 -43 15 -59 15 -28 14 -30 -34 -79 -26
-28 -51 -51 -55 -51 -5 0 -19 9 -33 20 -46 36 -60 -2 -18 -48 14 -15 25 -37
25 -49 0 -29 26 -53 56 -53 29 0 42 -26 26 -49 -7 -9 -16 -25 -21 -36 -5 -11
-21 -37 -35 -58 -28 -40 -32 -62 -16 -72 16 -10 36 10 82 81 34 54 45 64 69
64 23 0 35 -9 59 -43 67 -96 93 -128 104 -124 24 8 16 41 -24 98 -23 32 -38
63 -35 69 3 5 19 10 34 10 41 0 55 22 47 72 -6 34 -3 45 15 64 25 27 18 44
-19 44 -22 0 -35 11 -65 55 l-37 55 23 11 c12 6 36 25 54 41 31 30 31 30 42 9
16 -29 36 -26 61 9 12 16 27 30 34 30 19 0 56 44 56 66 0 11 -5 25 -11 31 -7
7 -14 67 -18 142 -6 107 -10 133 -26 150 -11 13 -25 19 -36 16 -11 -4 -22 1
-28 14 -10 18 -20 20 -96 17 -47 -2 -88 1 -91 5 -11 18 -45 9 -54 -15z m181
-167 c34 -37 37 -77 13 -160 -26 -89 -85 -149 -147 -149 -30 0 -52 24 -43 46
5 13 15 15 50 10 32 -5 46 -3 56 9 17 21 -4 45 -40 45 -33 0 -63 31 -58 61 3
24 18 35 61 44 35 7 33 38 -3 43 -34 5 -50 20 -43 40 12 34 26 42 75 42 43 0
54 -4 79 -31z m-109 -426 c10 -9 18 -30 18 -47 0 -22 9 -39 30 -58 54 -47 31
-68 -54 -49 -125 28 -126 28 -126 68 0 28 8 45 32 70 35 37 71 42 100 16z"/>
<path d="M914 1176 c-10 -25 0 -61 18 -64 11 -2 18 6 23 27 3 17 4 35 0 41 -9
15 -35 12 -41 -4z"/>
</g>
</svg>
