<?xml version="1.0" standalone="no"?>
<!DOCTYPE svg PUBLIC "-//W3C//DTD SVG 20010904//EN"
 "http://www.w3.org/TR/2001/REC-SVG-20010904/DTD/svg10.dtd">
<svg version="1.0" xmlns="http://www.w3.org/2000/svg"
 width="453.000000pt" height="900.000000pt" viewBox="0 0 453.000000 900.000000"
 preserveAspectRatio="xMidYMid meet">
<metadata>
Created by potrace 1.10, written by Peter Selinger 2001-2011
</metadata>
<g transform="translate(0.000000,900.000000) scale(0.100000,-0.100000)"
fill="#000000" stroke="none">
<path d="M2960 5644 c-21 -9 -62 -15 -100 -15 -36 1 -78 -3 -95 -9 -16 -5 -61
-14 -100 -19 -38 -5 -86 -15 -105 -23 -96 -37 -210 -142 -273 -251 -21 -35
-56 -81 -78 -103 -59 -57 -105 -122 -128 -183 -13 -35 -34 -65 -61 -88 -62
-53 -83 -103 -77 -177 6 -67 27 -150 53 -209 13 -27 26 -40 48 -45 35 -10 35
-8 11 -112 -9 -41 -20 -109 -25 -150 -5 -41 -14 -97 -20 -125 -7 -27 -13 -125
-13 -218 -1 -92 -4 -166 -8 -165 -13 5 -122 152 -212 285 -49 73 -93 133 -98
133 -4 0 -11 17 -15 38 -7 43 -47 108 -102 166 -72 77 -72 77 -72 234 0 138
-1 144 -25 167 -13 14 -31 25 -40 25 -8 0 -15 6 -15 13 0 14 26 90 39 115 5 9
25 52 45 94 19 42 50 98 69 125 19 26 42 65 51 86 22 53 3 92 -54 107 -65 17
-262 32 -490 37 l-216 4 -27 -25 c-20 -19 -27 -35 -27 -63 -1 -21 -5 -58 -10
-83 -5 -25 -14 -87 -20 -139 -6 -52 -14 -110 -20 -130 -19 -74 -39 -169 -54
-251 -8 -47 -19 -112 -25 -146 -6 -33 -11 -80 -11 -105 0 -24 -5 -61 -11 -82
-15 -56 -6 -70 58 -88 126 -37 244 -50 418 -49 189 2 234 -6 276 -46 24 -22
29 -36 29 -72 0 -27 10 -66 24 -96 14 -29 34 -81 46 -116 22 -66 39 -107 72
-171 35 -71 43 -85 68 -119 14 -19 30 -42 35 -52 6 -9 36 -55 68 -102 63 -92
106 -135 166 -166 72 -36 78 -53 84 -245 4 -105 12 -191 22 -225 22 -80 22
-761 0 -804 -9 -16 -15 -49 -13 -73 2 -42 0 -45 -103 -151 -159 -163 -194
-215 -347 -514 -55 -106 -111 -214 -125 -240 -31 -54 -35 -116 -11 -157 16
-26 15 -29 -11 -57 -15 -16 -31 -39 -36 -52 -8 -21 -12 -22 -163 -22 -198 0
-292 -18 -358 -68 -49 -37 -63 -65 -52 -107 10 -40 118 -86 224 -96 47 -4 112
-13 145 -19 57 -12 78 -11 276 9 79 7 99 21 99 70 0 36 39 122 58 129 6 2 22
-13 37 -32 21 -28 34 -36 60 -36 29 0 65 24 65 44 0 17 62 130 116 212 71 108
74 114 113 189 17 33 45 85 62 115 63 112 76 143 144 332 l16 46 53 -5 54 -6
42 54 c23 30 55 65 72 78 34 27 104 38 158 24 33 -9 35 -11 38 -58 2 -27 8
-56 15 -63 6 -8 21 -44 33 -81 30 -90 81 -206 112 -255 14 -23 73 -103 131
-179 58 -76 129 -171 156 -210 65 -94 173 -207 196 -207 26 0 35 -21 15 -36
-10 -7 -37 -16 -59 -20 -23 -3 -51 -13 -62 -20 -11 -8 -26 -14 -35 -14 -37 -1
-100 -83 -100 -130 0 -11 9 -29 20 -40 17 -17 33 -20 123 -19 108 0 193 9 292
29 156 32 203 79 189 187 -5 44 -13 59 -46 90 -21 21 -52 62 -69 90 -17 29
-46 71 -65 94 -40 48 -40 68 -2 87 15 7 30 22 33 33 7 22 -4 40 -98 155 -27
33 -53 68 -58 79 -5 11 -15 29 -22 40 -7 11 -34 58 -60 104 -27 45 -65 98 -85
116 -98 89 -133 126 -193 200 -35 44 -76 93 -91 110 -16 16 -28 34 -28 38 0
10 -43 69 -87 120 l-33 37 0 268 c0 176 5 308 15 387 8 65 15 171 15 235 0
122 6 145 30 130 8 -6 26 -10 39 -10 13 0 40 -13 61 -30 21 -17 42 -30 48 -30
5 0 40 -33 78 -72 54 -58 73 -86 89 -133 22 -67 123 -210 155 -220 11 -3 29
-4 39 0 36 11 96 -67 133 -175 9 -25 22 -59 29 -76 11 -28 10 -42 -14 -116
-34 -107 -36 -200 -6 -261 57 -113 113 -116 175 -9 18 31 37 41 48 23 3 -4 25
-14 50 -21 34 -9 49 -9 67 0 33 17 59 51 59 77 0 12 6 27 13 32 6 6 27 22 45
37 30 24 32 30 32 86 0 113 -54 167 -205 207 -53 14 -62 20 -77 53 -10 21 -31
44 -48 53 -16 9 -30 22 -30 30 0 7 -18 47 -40 87 -34 63 -40 82 -40 135 0 48
-4 66 -19 80 -18 17 -19 34 -18 223 0 185 -2 209 -20 251 -33 74 -86 144 -147
194 -67 55 -122 80 -192 88 -28 3 -76 17 -108 31 -50 22 -73 26 -157 26 -54 0
-100 4 -103 9 -3 4 22 26 57 47 82 50 232 201 288 289 63 100 66 106 87 150
48 102 70 173 87 291 9 54 20 103 25 108 6 6 23 4 47 -8 20 -9 58 -20 83 -23
44 -5 50 -3 88 31 51 47 106 128 122 182 10 33 10 49 0 80 -13 41 -65 104 -86
104 -24 0 -44 32 -44 68 0 30 6 42 32 64 49 39 44 92 -16 191 -59 98 -70 126
-57 152 71 142 -34 305 -197 305 -45 0 -51 3 -89 45 l-40 45 -69 0 c-40 -1
-84 -7 -104 -16z m125 -84 c10 -16 -48 -72 -67 -65 -19 8 -31 32 -22 47 14 22
78 36 89 18z m-150 -147 c3 -19 3 -65 -1 -103 -7 -73 -28 -108 -59 -96 -14 5
-14 9 1 43 26 57 28 107 9 162 -11 28 -15 56 -11 67 7 17 10 16 31 -10 13 -16
26 -45 30 -63z m-265 27 c0 -5 -9 -32 -20 -60 -11 -28 -20 -61 -20 -74 0 -34
-11 -39 -37 -14 -35 33 -31 84 9 125 30 31 68 44 68 23z m460 -105 c0 -28 -12
-32 -30 -10 -14 16 -6 35 16 35 8 0 14 -10 14 -25z m-348 -40 c-2 -14 -11 -25
-18 -25 -15 0 -17 10 -8 34 10 27 32 19 26 -9z m-1439 -30 c160 -15 171 -23
125 -86 -33 -44 -43 -62 -92 -170 -65 -143 -82 -218 -90 -404 -4 -77 -9 -166
-13 -197 l-6 -58 -36 0 c-20 -1 -47 -7 -61 -15 -30 -17 -169 -20 -251 -5 -30
5 -75 12 -101 15 -61 8 -65 21 -49 159 13 122 38 255 76 406 15 63 35 195 42
288 5 53 9 65 27 72 30 13 278 10 429 -5z m1598 -298 c64 -31 82 -33 99 -12
21 25 34 17 53 -33 72 -185 81 -236 81 -437 -1 -175 -6 -209 -54 -340 -50
-135 -142 -276 -247 -376 -68 -64 -127 -105 -311 -216 -20 -12 -51 -22 -68
-23 -16 0 -39 -7 -50 -15 -29 -22 -80 -18 -122 9 -62 39 -168 162 -202 232
-26 56 -30 75 -30 152 -1 122 47 440 83 550 32 101 68 147 133 171 80 30 99
46 149 122 25 37 65 83 88 101 23 18 73 59 111 91 l69 59 81 -4 c62 -3 94 -10
137 -31z m419 -39 c0 -7 -5 -20 -10 -28 -12 -19 -35 2 -27 24 7 19 37 21 37 4z
m-1135 -58 c27 -29 6 -47 -23 -20 -12 12 -22 25 -22 30 0 17 26 11 45 -10z
m-105 -79 c22 -30 40 -60 40 -67 0 -15 -81 -58 -90 -47 -10 12 -34 104 -33
126 2 22 22 49 34 45 4 -2 26 -27 49 -57z m1378 -178 c-3 -29 -32 -43 -50 -25
-15 15 9 52 33 52 16 0 20 -5 17 -27z m-2098 -201 c0 -4 34 -46 75 -92 73 -83
95 -130 59 -130 -20 0 -69 54 -93 102 -10 21 -30 48 -45 59 -29 23 -36 69 -11
69 8 0 15 -4 15 -8z m237 -349 c16 -21 59 -83 96 -138 36 -55 87 -125 111
-155 25 -30 101 -129 170 -220 113 -148 154 -190 190 -190 17 0 46 32 46 52 0
23 7 23 82 -3 l62 -20 88 21 c77 19 111 21 275 18 171 -3 192 -5 235 -25 26
-13 60 -23 76 -23 107 0 243 -106 292 -229 13 -32 12 -35 -13 -57 -35 -30 -34
-58 4 -114 33 -48 34 -58 13 -225 -5 -45 -3 -52 20 -74 48 -45 25 -81 -53 -81
-33 0 -44 5 -65 33 -23 30 -51 94 -63 145 -8 33 -126 156 -212 220 -73 55 -78
57 -141 58 l-65 1 -3 54 c-5 77 -40 111 -74 72 -12 -15 -17 -61 -21 -233 -4
-118 -11 -244 -16 -280 -6 -36 -14 -207 -17 -380 -6 -243 -10 -320 -21 -336
-21 -33 -7 -68 32 -83 36 -13 55 -33 138 -147 93 -129 209 -264 254 -299 61
-46 134 -144 172 -231 13 -30 75 -125 99 -152 42 -48 12 -236 -44 -283 -19
-16 -51 14 -112 106 -25 38 -67 94 -92 125 -105 126 -229 306 -254 370 -10 25
-23 54 -28 65 -30 66 -71 198 -77 250 -11 97 -58 143 -117 116 -14 -6 -49 -11
-78 -11 -71 0 -112 -15 -168 -61 -55 -46 -71 -48 -86 -14 -12 25 -52 34 -79
17 -17 -11 -66 -116 -88 -187 -31 -103 -74 -216 -104 -268 -10 -18 -44 -81
-76 -142 -31 -60 -85 -153 -119 -205 -35 -52 -73 -114 -86 -137 -13 -24 -29
-43 -36 -43 -16 0 -178 178 -182 200 -3 16 8 39 55 115 7 11 24 45 39 75 49
103 111 225 132 260 11 19 30 53 42 74 59 107 235 302 306 338 l42 20 1 502
c1 421 -1 509 -14 550 -11 35 -15 94 -15 206 l0 157 -29 40 c-33 46 -82 86
-123 102 -43 16 -231 283 -292 413 -25 55 -82 212 -93 256 -6 26 12 52 37 52
10 0 31 -17 47 -37z m2063 -1874 c105 -27 171 -75 156 -114 -7 -19 -40 -19
-56 0 -6 7 -32 17 -56 21 -54 8 -94 -14 -94 -51 0 -15 -11 -31 -30 -45 -16
-12 -30 -27 -30 -34 0 -7 -11 -23 -25 -36 -22 -21 -25 -21 -31 -6 -18 48 73
293 105 282 9 -3 36 -10 61 -17z m53 -225 c11 -11 -3 -24 -18 -18 -8 4 -12 10
-9 15 6 11 18 12 27 3z m-2276 -1307 l-46 -94 -100 -13 c-54 -7 -107 -10 -117
-6 -11 4 -66 11 -124 16 -105 8 -160 23 -160 44 0 19 147 36 313 36 l158 0 30
32 c16 18 29 37 29 42 0 19 43 57 53 47 7 -7 -6 -43 -36 -104z m1968 43 c14
-22 25 -44 25 -49 0 -6 13 -24 29 -40 16 -16 37 -44 48 -61 18 -31 18 -32 -5
-50 -13 -11 -44 -22 -70 -25 -26 -4 -69 -13 -96 -21 -57 -16 -152 -19 -161 -4
-3 5 4 11 17 14 13 2 59 12 103 21 44 10 90 19 101 21 25 4 49 54 40 82 -4 11
-25 32 -47 48 -48 33 -59 52 -48 82 13 33 36 27 64 -18z"/>
<path d="M1079 5201 c-22 -21 -39 -48 -39 -60 0 -11 -4 -21 -9 -21 -5 0 -13
-10 -17 -22 -4 -13 -15 -34 -25 -47 -28 -35 -23 -49 19 -61 54 -15 64 -24 60
-56 -3 -28 -5 -29 -45 -26 -34 3 -43 0 -43 -12 0 -9 6 -16 14 -16 8 0 22 -10
30 -21 13 -20 13 -25 0 -52 -11 -20 -14 -43 -10 -71 7 -52 7 -53 0 -100 -5
-29 -3 -37 7 -34 7 2 16 17 20 32 10 36 37 66 60 66 18 0 25 -15 31 -68 5 -35
22 -27 31 14 4 21 12 43 19 51 7 8 9 38 5 78 -4 57 -2 67 14 76 27 14 24 29
-5 29 -58 0 -35 39 29 50 l30 5 -2 76 c-3 78 -6 88 -62 177 -40 64 -59 66
-112 13z m106 -198 c0 -45 -2 -48 -27 -51 -32 -4 -38 19 -13 45 19 18 10 36
-14 28 -25 -8 -47 20 -32 39 9 11 18 11 49 1 36 -13 37 -15 37 -62z m-55 -141
c0 -15 7 -36 15 -46 16 -21 21 -82 8 -89 -5 -3 -28 -2 -53 2 -42 6 -45 8 -44
36 3 51 21 106 41 120 23 17 33 10 33 -23z"/>
<path d="M864 4476 c-10 -26 0 -51 21 -51 16 0 20 7 20 30 0 33 -30 49 -41 21z"/>
<path d="M1040 4470 c0 -5 7 -10 15 -10 8 0 15 5 15 10 0 6 -7 10 -15 10 -8 0
-15 -4 -15 -10z"/>
<path d="M1127 4473 c-13 -12 -7 -61 8 -66 20 -8 26 5 19 42 -6 30 -14 37 -27
24z"/>
<path d="M966 4444 c-15 -21 -16 -28 -6 -34 29 -18 64 13 49 42 -13 24 -20 22
-43 -8z"/>
<path d="M2396 4445 c-30 -32 -30 -34 -14 -72 16 -35 47 -62 72 -63 29 0 76
49 76 80 0 33 -36 68 -77 76 -26 5 -36 1 -57 -21z"/>
<path d="M2853 4433 c-47 -41 -49 -84 -3 -103 37 -15 62 -9 123 29 76 49 58
101 -37 101 -42 0 -58 -5 -83 -27z"/>
<path d="M2342 4018 c-18 -18 -14 -77 8 -108 23 -32 66 -55 134 -70 42 -9 57
-8 110 10 74 26 106 54 106 92 0 47 -36 56 -96 24 -75 -40 -168 -30 -180 20
-10 38 -57 57 -82 32z"/>
<path d="M2320 3021 c-22 -22 -46 -41 -54 -41 -27 0 -49 -58 -43 -116 7 -70
48 -157 81 -172 29 -13 32 -31 12 -70 -7 -15 -16 -51 -18 -80 -4 -44 -2 -54
13 -63 23 -12 24 -37 4 -63 -17 -23 -20 -66 -5 -66 6 0 15 10 21 23 25 55 42
79 65 89 35 16 69 -5 80 -49 13 -48 28 -42 34 14 5 44 8 48 35 53 26 5 30 10
29 37 -1 19 -16 50 -38 79 -20 26 -36 52 -36 58 0 6 15 26 34 44 19 18 36 42
39 52 7 27 -14 38 -27 15 -21 -36 -48 -56 -69 -53 -34 5 -31 39 7 82 30 33 35
45 35 92 0 37 -6 60 -20 78 -10 13 -19 28 -19 34 0 16 -41 47 -64 48 -11 1
-29 5 -39 9 -13 6 -28 -3 -57 -34z m95 -101 c8 -12 -21 -80 -34 -80 -21 0 -11
-28 11 -34 18 -4 20 -8 10 -18 -21 -21 -66 2 -70 36 -2 16 1 33 7 39 6 6 11
21 11 32 0 12 3 25 7 28 10 10 51 8 58 -3z m33 -68 c3 -9 -2 -13 -14 -10 -9 1
-19 9 -22 16 -3 9 2 13 14 10 9 -1 19 -9 22 -16z m-121 -96 c25 -22 26 -25 10
-31 -12 -5 -25 1 -41 18 -22 24 -24 37 -5 37 4 0 21 -11 36 -24z m134 -111
c12 -22 35 -57 51 -78 18 -22 27 -42 22 -47 -15 -15 -181 -17 -196 -2 -13 13
0 80 28 136 8 16 14 34 14 41 0 6 6 17 12 23 14 14 33 -6 69 -73z"/>
<path d="M32 351 c-8 -5 -12 -23 -10 -47 l3 -39 190 -6 c105 -3 219 -11 255
-17 36 -6 109 -14 163 -18 111 -7 127 -18 82 -59 -32 -31 -30 -60 7 -88 24
-18 49 -21 226 -27 110 -4 205 -10 211 -14 6 -4 86 -12 178 -18 219 -15 1721
-22 1748 -9 11 6 54 12 95 15 41 3 129 9 195 15 66 5 332 10 590 10 352 1 474
4 483 13 7 7 12 24 12 38 0 37 -18 50 -70 50 -71 0 -481 39 -689 65 -87 11
-120 20 -136 35 -26 24 -48 25 -79 5 -20 -13 -34 -14 -97 -4 -41 6 -90 18
-109 27 -27 13 -69 17 -185 17 -82 1 -208 6 -280 13 -71 6 -227 17 -345 23
-438 22 -2409 39 -2438 20z"/>
</g>
</svg>
